<svg xmlns="http://www.w3.org/2000/svg" xmlns:xlink="http://www.w3.org/1999/xlink" viewBox="0,0,256,256" width="512px" height="512px" fill-rule="nonzero"><g fill="#ffffff" fill-rule="nonzero" stroke="none" stroke-width="1" stroke-linecap="butt" stroke-linejoin="miter" stroke-miterlimit="10" stroke-dasharray="" stroke-dashoffset="0" font-family="none" font-weight="none" font-size="none" text-anchor="none" style="mix-blend-mode: normal"><g transform="scale(8,8)"><path d="M16.03516,3c-5.845,0 -9.03516,5.77322 -9.03516,10.07422c0,4.464 2.83653,6.9375 7.26953,6.9375c0.609,0 0.55859,-0.05064 0.55859,0.19336c-0.858,6.546 -4.61133,6.75969 -4.61133,4.80469c0,-1.991 2.74939,-2.48542 2.77539,-2.60742c-0.016,-0.62 -2.38819,-1.40234 -2.99219,-1.40234c-1.721,0.005 -3,2.10816 -3,3.53516c0,2.636 1.5408,4.46484 4.2168,4.46484c3.93,0 6.8045,-3.95177 7.6875,-7.38477c0.767,-3.072 0.569,-3.21264 1,-3.43164c1.635,-0.823 2.92067,-0.61133 4.76367,-0.61133c0.904,0 1.54823,0.18873 2.99023,0.42773c0.147,0 0.33984,-0.14692 0.33984,-0.29492c0.001,-0.406 -1.61705,-3.36472 -1.99805,-3.51172c-0.178,-0.071 -0.58825,-0.19336 -0.78125,-0.19336c-1.884,0 -3.23717,0.3842 -4.82617,1.2832l-0.04492,-0.04492c0.356,-2.402 1.65234,-4.95302 1.65234,-7.41602c0,-3.631 -2.39984,-4.82227 -5.96484,-4.82227zM16.28906,5.82813c0.945,0 1.47656,0.38988 1.47656,1.17188c-0.005,0.726 -0.13716,1.44634 -0.28516,2.15234c-0.472,2.27 -1.40409,4.83742 -1.87109,7.10742c-0.117,0.518 -0.67519,0.39453 -1.11719,0.39453c-1.945,0 -2.49219,-2.12194 -2.49219,-3.71094c0,-2.387 0.91858,-5.54944 3.14258,-6.77344c0.355,-0.208 0.75048,-0.3418 1.14648,-0.3418z"></path></g></g></svg>